<svg   viewBox="0 0 209 66"   xmlns="http://www.w3.org/2000/svg">
<path d="M25.8467 44.1979V31.2857C25.8467 30.1411 25.8109 28.8893 25.7392 27.852L37.4193 44.1979H42.4711V19.1604H37.0969V32.0726C37.0969 33.2172 37.1327 34.469 37.2043 35.5063L25.5242 19.1604H20.4724V44.1979H25.8467Z" />
<path d="M56.302 0H0V63.871H63.9796V24.271H57.5816V57.4839H6.39796V6.3871H56.302V0Z" />
<path d="M86.5857 27.6774V15.3801C86.5857 14.29 86.5516 13.0978 86.4833 12.1099L97.6073 27.6774H102.419V3.83224H97.3002V16.1295C97.3002 17.2196 97.3343 18.4118 97.4025 19.3997L86.2786 3.83224H81.4673V27.6774H86.5857Z" />
<path d="M107.56 15.7548C107.56 22.2271 111.791 28.1543 120.253 28.1543C128.716 28.1543 132.947 22.2271 132.947 15.7548C132.947 9.28256 128.716 3.35534 120.253 3.35534C111.791 3.35534 107.56 9.28256 107.56 15.7548ZM127.692 15.7548C127.692 19.9448 125.201 23.4194 120.253 23.4194C115.271 23.4194 112.78 19.9448 112.78 15.7548C112.78 11.5649 115.271 8.0903 120.253 8.0903C125.201 8.0903 127.692 11.5649 127.692 15.7548Z" />
<path d="M149.195 27.6774L158.511 3.83224H152.983L146.568 21.6821L140.187 3.83224H134.659L143.94 27.6774H149.195Z" />
<path d="M163.204 27.6774L164.978 23.215H175.897L177.637 27.6774H182.926L173.202 3.83224H167.674L157.915 27.6774H163.204ZM169.892 10.4408C170.096 9.96385 170.267 9.48695 170.438 8.5672C170.608 9.48695 170.779 9.96385 170.949 10.4408L174.293 18.9909H166.582L169.892 10.4408Z" />
<path d="M80.1707 49.8194C80.1707 58.5739 86.6198 62.2188 93.3078 62.2188C95.9694 62.2188 98.6992 61.6397 101.088 60.6178V48.7974H96.2082V57.3136C95.4917 57.5861 94.6045 57.7564 93.5808 57.7564C90.0662 57.7564 85.3914 56.1554 85.3914 49.8194C85.3914 44.2328 89.5885 41.9845 93.8538 41.9845C96.2765 41.9845 98.6992 42.6317 100.508 43.824V38.9528C98.2897 37.9649 95.7305 37.4199 93.1713 37.4199C86.6198 37.4199 80.1707 41.167 80.1707 49.8194Z" />
<path d="M111.91 61.7419V53.3961H115.663L122.112 61.7419H128.015L120.884 52.7489C123.784 51.8292 126.105 49.7512 126.105 45.6635C126.105 39.6341 121.259 37.8968 116.619 37.8968H106.791V61.7419H111.91ZM111.91 42.3933H116.857C119.007 42.3933 120.884 43.313 120.884 45.7657C120.884 48.1843 119.007 49.1381 116.857 49.1381H111.91V42.3933Z" />
<path d="M130.584 49.8194C130.584 56.2916 134.816 62.2188 143.278 62.2188C151.74 62.2188 155.972 56.2916 155.972 49.8194C155.972 43.3471 151.74 37.4199 143.278 37.4199C134.816 37.4199 130.584 43.3471 130.584 49.8194ZM150.717 49.8194C150.717 54.0093 148.226 57.4839 143.278 57.4839C138.296 57.4839 135.805 54.0093 135.805 49.8194C135.805 45.6294 138.296 42.1548 143.278 42.1548C148.226 42.1548 150.717 45.6294 150.717 49.8194Z" />
<path d="M176.766 37.8968V52.5105C176.766 56.2916 174.582 57.6201 171.375 57.6201C168.201 57.6201 166.017 56.2916 166.017 52.5105V37.8968H160.899V52.783C160.899 59.8343 166.086 62.2188 171.375 62.2188C176.664 62.2188 181.85 59.8343 181.85 52.783V37.8968H176.766Z" />
<path d="M188.095 37.8968V61.7419H193.213V53.9071H197.103C202.87 53.9071 207.408 52.0676 207.408 45.9019C207.408 39.7363 202.87 37.8968 197.103 37.8968H188.095ZM202.187 45.9019C202.187 48.6952 199.969 49.4106 197.342 49.4106H193.213V42.3933H197.342C199.969 42.3933 202.187 43.0746 202.187 45.9019Z" />
</svg>
