<svg width="22" height="14" viewBox="0 0 22 14" xmlns="http://www.w3.org/2000/svg">
<path d="M1.37504 0.77832C2.09692 0.77832 3.19692 0.77832 3.81567 0.77832C4.12504 0.77832 4.36567 0.984571 4.46879 1.25957C4.77817 2.15332 5.46567 4.1127 6.25629 5.45332C7.32192 7.20645 8.00942 7.85957 8.45629 7.79082C8.90317 7.6877 8.76567 6.51895 8.76567 5.59082C8.76567 4.6627 8.86879 3.08145 8.42192 2.35957L7.73442 1.3627C7.56254 1.12207 7.73442 0.812695 8.00942 0.812695H11.9282C12.3063 0.812695 12.6157 1.12207 12.6157 1.5002V6.48457C12.6157 6.48457 12.7875 7.37832 13.75 6.4502C14.7125 5.52207 15.7438 3.80332 16.6032 2.0502L16.9469 1.2252C17.05 0.98457 17.2907 0.812695 17.5657 0.812695H20.1094C20.5907 0.812695 20.9344 1.29395 20.7625 1.74082L20.4875 2.4627C20.4875 2.4627 19.5594 4.31895 18.5969 5.6252C17.6344 6.96582 17.4282 7.2752 17.5657 7.61895C17.7032 7.9627 20.1782 10.2658 20.7969 11.3658C20.9688 11.6752 21.1063 11.9502 21.2438 12.1908C21.4844 12.6377 21.1407 13.2221 20.625 13.2221H17.7375C17.4969 13.2221 17.2563 13.0846 17.1532 12.8783L16.8782 12.4314C16.8782 12.4314 15.125 10.3689 14.0594 9.71582C12.9594 9.09707 12.9938 9.99082 12.9938 9.99082V11.8127C12.9938 12.5689 12.375 13.1877 11.6188 13.1877H10.9313C10.9313 13.1877 7.15004 13.1877 4.12504 8.68457C1.75317 5.17832 0.962543 2.90957 0.687543 1.60332C0.618793 1.19082 0.928168 0.77832 1.37504 0.77832Z" />
</svg>
